<?xml version="1.0" encoding="utf-8"?>
<!-- Generator: Adobe Illustrator 27.6.1, SVG Export Plug-In . SVG Version: 6.00 Build 0)  -->
<svg version="1.1" id="Layer_1" xmlns="http://www.w3.org/2000/svg" xmlns:xlink="http://www.w3.org/1999/xlink" x="0px" y="0px"
	 viewBox="0 0 100 101" style="enable-background:new 0 0 100 101;" xml:space="preserve">
<style type="text/css">
	.st0{fill:#FFFFFF;stroke:#FFFFFF;stroke-width:3;stroke-miterlimit:10;}
</style>
<g>
	<path class="st0" d="M50,83.9c-0.4,0-0.8-0.1-1.2-0.3C47.6,83.1,21,69.5,21,47.2C21,25.3,47.2,4.5,48.3,3.6c1-0.8,2.4-0.8,3.4,0
		C52.8,4.5,79,25.3,79,47.2c0,22.3-26.7,35.9-27.8,36.4C50.8,83.9,50.4,83.9,50,83.9z M50,9.3c-5.7,4.9-23.6,21.6-23.6,37.9
		c0,16.4,18.6,28,23.6,30.9c5-2.8,23.6-14.5,23.6-30.9C73.6,30.9,55.7,14.2,50,9.3z"/>
	<path class="st0" d="M50,98c-1.5,0-2.7-1.2-2.7-2.7V81.2c0-1.5,1.2-2.7,2.7-2.7s2.7,1.2,2.7,2.7v14.1C52.7,96.8,51.5,98,50,98z"/>
</g>
</svg>
