<?xml version="1.0" encoding="utf-8"?>
<!-- Generator: Adobe Illustrator 27.6.1, SVG Export Plug-In . SVG Version: 6.00 Build 0)  -->
<svg version="1.1" id="Layer_1" xmlns="http://www.w3.org/2000/svg" xmlns:xlink="http://www.w3.org/1999/xlink" x="0px" y="0px"
	 viewBox="0 0 24 22.7" style="enable-background:new 0 0 24 22.7;" xml:space="preserve">
<style type="text/css">
	.st0{fill-rule:evenodd;clip-rule:evenodd;fill:#FFFFFF;}
</style>
<path class="st0" d="M13,20.3c0,0.6-0.4,1-1,1s-1-0.4-1-1v-3H9c-3.9,0-7-3.1-7-7v-3c0-0.6,0.4-1,1-1h3c2,0,3.7,0.8,5,2.1V8.3
	c0-3.9,3.1-7,7-7h3c0.6,0,1,0.4,1,1v3c0,3.9-3.1,7-7,7h-2V20.3z M13,10.3h2c2.8,0,5-2.2,5-5v-2h-2c-2.8,0-5,2.2-5,5V10.3z M11,13.3
	c0-2.8-2.2-5-5-5H4v2c0,2.8,2.2,5,5,5h2V13.3z"/>
</svg>
