<?xml version="1.0" encoding="utf-8"?>
<!-- Generator: Adobe Illustrator 27.6.1, SVG Export Plug-In . SVG Version: 6.00 Build 0)  -->
<svg version="1.1" id="Layer_1" xmlns="http://www.w3.org/2000/svg" xmlns:xlink="http://www.w3.org/1999/xlink" x="0px" y="0px"
	 viewBox="0 0 100 100.8" style="enable-background:new 0 0 100 100.8;" xml:space="preserve">
<style type="text/css">
	.st0{fill:#FFFFFF;}
</style>
<path class="st0" d="M26,2.4H14c-2.2,0-4,1.8-4,4c0,15.5,12.5,28,28,28h8v16.4c-5.3-5.4-12.5-8.4-20-8.4H14c-2.2,0-4,1.8-4,4
	c0,15.5,12.5,28,28,28h8v16H14c-2.2,0-4,1.8-4,4s1.8,4,4,4h72c2.2,0,4-1.8,4-4s-1.8-4-4-4H54v-36h8c15.5,0,28-12.5,28-28
	c0-2.2-1.8-4-4-4H74c-7.5,0-14.7,3-20,8.4v-0.4C54,14.9,41.5,2.4,26,2.4z M38,26.4c-9.5,0-17.7-6.7-19.6-16H26
	c9.5,0,17.7,6.7,19.6,16H38z M38,66.4c-9.5,0-17.7-6.7-19.6-16H26c9.5,0,17.7,6.7,19.6,16H38z M74,30.4h7.6
	c-1.9,9.3-10.1,16-19.6,16h-7.6C56.3,37.1,64.5,30.4,74,30.4z"/>
</svg>
