<?xml version="1.0" encoding="utf-8"?>
<!-- Generator: Adobe Illustrator 27.6.1, SVG Export Plug-In . SVG Version: 6.00 Build 0)  -->
<svg version="1.1" id="Layer_1" xmlns="http://www.w3.org/2000/svg" xmlns:xlink="http://www.w3.org/1999/xlink" x="0px" y="0px"
	 viewBox="0 0 100 99.9" style="enable-background:new 0 0 100 99.9;" xml:space="preserve">
<style type="text/css">
	.st0{fill:#FFFFFF;stroke:#FFFFFF;stroke-width:2;stroke-miterlimit:10;}
</style>
<g>
	<path class="st0" d="M56.2,18.3c4.6-6.1,13.1-8.2,17.5-9c-0.1,4.5-1,13.1-6.4,18.6c-2.7,2.7-6.2,4.3-10,4.7c0.1,1.9,0.1,3.8,0,5.7
		c5.3-0.4,10.2-2.7,14-6.5c9.3-9.4,8-25.2,7.9-25.9l0,0c-0.1-1.5-1.4-2.6-2.9-2.5l0,0c-0.7,0-16.5,1-24.5,11.5
		c-0.2,0.2-0.3,0.4-0.5,0.7c1.3,1.7,2.4,3.6,3.2,5.6C54.9,20.1,55.5,19.2,56.2,18.3z"/>
	<path class="st0" d="M94.1,50.7c-0.8-0.3-20.4-6.2-34.8,2.9c-2.5,1.6-4.7,3.6-6.5,5.9V44.7l0.3-2c1.7-11.1-0.5-20.2-6.5-26.9
		C35.4,3,14.9,3.2,14,3.3l0,0c-1.5,0-2.7,1.2-2.7,2.7l0,0c0,0.9-0.3,21.3,12.5,32.6c5.3,4.7,12,7,20,7c1.1,0,2.2,0,3.4-0.1v14
		c-1.8-2.3-4.1-4.3-6.5-5.9c-14.3-9.1-33.9-3.2-34.8-2.9l0,0c-1.4,0.4-2.3,1.9-1.9,3.4l0,0c0.2,0.8,5.7,20.6,21.1,27.8
		c6.4,3,13.5,3.4,21.2,1.2c0.3-0.1,0.6-0.2,0.9-0.3v13.9h5.6V82.7c0.3,0.1,0.6,0.2,0.9,0.3c7.7,2.2,14.8,1.8,21.2-1.2
		c15.4-7.2,20.8-27,21.1-27.8v0C96.4,52.6,95.5,51.1,94.1,50.7L94.1,50.7z M27.5,34.4C19.2,27.1,17.4,14.6,17,9
		c5.6,0.4,18.1,2.2,25.4,10.5c4.5,5.1,6.3,11.9,5.4,20.3C39.4,40.7,32.6,38.8,27.5,34.4z M27.5,76.8c-9.9-4.7-15.2-16.2-17.2-21.5
		c5.5-1.2,18-2.9,27.3,3c4.5,3,7.8,7.4,9.4,12.5c0.1,0.1,0.1,0.3,0.1,0.5v5.6c-0.5,0.2-1,0.4-1.5,0.5C38.9,79.5,32.8,79.3,27.5,76.8
		z M72.5,76.8c-5.4,2.5-11.5,2.7-18.2,0.5c-0.5-0.2-1-0.3-1.5-0.5v-5.6c0-0.2,0.1-0.3,0.1-0.5c1.6-5.1,4.9-9.5,9.4-12.5
		c9.3-5.9,21.8-4.2,27.3-3C87.7,60.6,82.5,72.1,72.5,76.8z"/>
</g>
</svg>
