<?xml version="1.0" encoding="UTF-8"?><svg id="Layer_1" xmlns="http://www.w3.org/2000/svg" viewBox="0 0 1056.07 209.46"><defs><style>.cls-1{fill:#fff;}.cls-2{fill:#051323;}.cls-3{fill:#0e4970;}</style></defs><rect class="cls-3" width="209.46" height="209.46" rx="49.26" ry="49.26"/><path class="cls-1" d="m53.06,82.96h-10.63c-2.68,0-4.9,2.05-5.13,4.72l-6.22,74.6c-.05.58.41,1.09,1,1.09h31.32c.59,0,1.05-.5,1-1.09l-6.22-74.6c-.22-2.67-2.45-4.72-5.13-4.72Z"/><circle class="cls-1" cx="47.74" cy="59.51" r="13.4"/><path class="cls-1" d="m77.89,130.85v31.51c0,.55.45,1,1,1h24.81c.55,0,1-.45,1-1v-63.1l-26.8,7.15v24.45Z"/><path class="cls-1" d="m114.74,130.85v31.51c0,.55.45,1,1,1h24.81c.55,0,1-.45,1-1v-72.93l-26.8,7.15v34.27Z"/><path class="cls-1" d="m151.59,130.85v31.51c0,.55.45,1,1,1h24.81c.55,0,1-.45,1-1v-82.75l-26.8,7.15v44.1Z"/><path class="cls-1" d="m172.29,57.78l-20.7,5.52-10.05,2.68-26.8,7.15-20.67,5.51c-9.54,2.55-16.18,11.19-16.18,21.07h0l26.8-7.15,10.05-2.68,26.8-7.15,10.05-2.68,26.8-7.15v-10.44c0-3.18-3.02-5.5-6.1-4.68Z"/><path class="cls-2" d="m277.67,163.96h-24.62V51.48h24.62v112.47Z"/><path class="cls-2" d="m289.83,126.41c0-24.17,14.44-40.89,37.54-40.89,9.42,0,18.39,3.8,22.8,9.42v-45.6h23.41v114.6h-22.04l-1.22-9.73c-4.1,6.99-13.53,11.7-24.47,11.7-21.89,0-36.02-15.5-36.02-39.52Zm60.19-.91c0-11.4-7.6-19-18.54-19s-18.09,7.75-18.09,19,6.99,19,18.09,19,18.54-7.6,18.54-19Z"/><path class="cls-2" d="m385.13,62.73c0-7.45,5.93-13.22,13.38-13.22s13.22,5.78,13.22,13.22-5.93,13.38-13.22,13.38-13.38-5.93-13.38-13.38Zm1.82,25.23h23.41v76h-23.41v-76Z"/><path class="cls-2" d="m461.59,85.68c24.17,0,41.8,16.11,41.8,40.13s-17.63,39.97-41.8,39.97-41.95-15.96-41.95-39.97,17.63-40.13,41.95-40.13Zm0,59.12c10.79,0,18.24-7.6,18.24-19.15s-7.45-19-18.24-19-18.39,7.6-18.39,19,7.45,19.15,18.39,19.15Z"/><path class="cls-2" d="m512.66,163.96v-76h21.89l1.52,7.9c3.8-5.32,11.25-10.34,22.19-10.34s18.7,5.32,23.1,13.38c3.95-8.06,12.92-13.38,23.86-13.38,19.61,0,29.33,11.4,29.33,28.73v49.7h-23.41v-43.17c0-9.58-5.02-14.14-12.46-14.14-6.69,0-13.38,3.65-13.38,16.57v40.73h-23.41v-43.17c0-9.42-4.86-13.98-12.31-13.98-6.69,0-13.53,3.65-13.53,16.42v40.73h-23.41Z"/><path class="cls-2" d="m643.83,141.61c0-13.98,9.88-22.65,28.12-24.01l21.28-1.67v-1.22c0-7.45-4.56-11.4-12.92-11.4-9.88,0-15.2,3.8-15.2,10.64h-19.46c0-17.18,14.14-28.42,35.87-28.42s34.5,12.31,34.5,34.05v44.38h-20.67l-1.52-10.03c-2.43,6.99-12.46,12.01-23.86,12.01-16.11,0-26.14-9.42-26.14-24.32Zm49.55-6.08v-4.1l-11.86,1.06c-10.18.91-13.83,3.19-13.83,8.05,0,5.47,3.34,8.06,10.49,8.06,8.97,0,15.2-4.41,15.2-13.07Z"/><path class="cls-2" d="m767.41,163.96V51.48h23.86l33.44,83.9,33.59-83.9h24.17v112.47h-23.86v-23.56c0-24.32,0-29.64,1.22-38l-23.86,61.56h-22.5l-23.71-61.56c1.37,8.36,1.52,17.78,1.52,30.09v31.46h-23.86Z"/><path class="cls-2" d="m895.54,141.61c0-13.98,9.88-22.65,28.12-24.01l21.28-1.67v-1.22c0-7.45-4.56-11.4-12.92-11.4-9.88,0-15.2,3.8-15.2,10.64h-19.46c0-17.18,14.14-28.42,35.87-28.42s34.5,12.31,34.5,34.05v44.38h-20.67l-1.52-10.03c-2.43,6.99-12.46,12.01-23.86,12.01-16.11,0-26.14-9.42-26.14-24.32Zm49.55-6.08v-4.1l-11.86,1.06c-10.18.91-13.83,3.19-13.83,8.05,0,5.47,3.34,8.06,10.49,8.06,8.97,0,15.2-4.41,15.2-13.07Z"/><path class="cls-2" d="m972.91,163.96l25.54-36.78-25.54-39.21h27.05l13.98,23.1,13.07-23.1h26.14l-25.08,38.76,24.17,37.24h-26.9l-13.07-21.89-12.77,21.89h-26.6Z"/></svg>