<?xml version="1.0" encoding="UTF-8"?><svg id="Layer_1" xmlns="http://www.w3.org/2000/svg" viewBox="0 0 276.54 276.54"><defs><style>.cls-1{fill:#fff;}.cls-2{fill:#0e4970;}</style></defs><rect class="cls-2" width="276.54" height="276.54" rx="49.26" ry="49.26"/><path class="cls-1" d="m63,106.55h-15.49c-3.9,0-7.14,2.99-7.47,6.87l-9.05,108.66c-.07.85.6,1.58,1.46,1.58h45.62c.85,0,1.53-.73,1.46-1.58l-9.05-108.66c-.32-3.88-3.57-6.87-7.47-6.87Z"/><circle class="cls-1" cx="55.25" cy="72.4" r="19.52"/><path class="cls-1" d="m99.17,176.32v45.89c0,.8.65,1.45,1.45,1.45h36.14c.8,0,1.45-.65,1.45-1.45v-91.91l-39.04,10.41v35.61Z"/><path class="cls-1" d="m152.84,176.32v45.89c0,.8.65,1.45,1.45,1.45h36.14c.8,0,1.45-.65,1.45-1.45v-106.22l-39.04,10.41v49.92Z"/><path class="cls-1" d="m206.52,176.32v45.89c0,.8.65,1.45,1.45,1.45h36.14c.8,0,1.45-.65,1.45-1.45v-120.54l-39.04,10.41v64.23Z"/><path class="cls-1" d="m236.68,69.88l-30.16,8.04-14.64,3.9-39.04,10.41-30.1,8.03c-13.9,3.71-23.57,16.3-23.57,30.68h0l39.04-10.41,14.64-3.9,39.04-10.41,14.64-3.9,39.04-10.41v-15.21c0-4.64-4.4-8.02-8.88-6.82Z"/></svg>