<?xml version="1.0" encoding="utf-8"?>
<!-- Generator: Adobe Illustrator 27.6.1, SVG Export Plug-In . SVG Version: 6.00 Build 0)  -->
<svg version="1.1" xmlns="http://www.w3.org/2000/svg" xmlns:xlink="http://www.w3.org/1999/xlink" x="0px" y="0px"
	 viewBox="0 0 2094 2094" style="enable-background:new 0 0 2094 2094;" xml:space="preserve">
<style type="text/css">
	.st0{fill:#166799;}
	.st1{fill:#F7896F;}
	.st2{fill:#363E44;}
	.st3{fill:#84524D;}
	.st4{fill:#FFFFFF;}
	.st5{clip-path:url(#SVGID_00000157279764070688127540000003879413944625678982_);fill:#363E44;}
	.st6{fill:#EFBC73;}
	.st7{fill:#001B26;}
	.st8{fill:#D3BBA3;}
	.st9{fill:#F7F1EB;}
	.st10{fill:#E6D0BE;}
	.st11{fill:#0E4970;}
	.st12{fill:#2D353A;}
	.st13{fill:#E2A18D;}
	.st14{fill:#E0AA63;}
	.st15{clip-path:url(#SVGID_00000159462847660480527690000014481752614409866641_);fill:#363E44;}
	.st16{fill:#D87355;}
	.st17{clip-path:url(#SVGID_00000167380798922155407980000016806364873996541624_);fill:#363E44;}
</style>
<g id="Background">
</g>
<g id="Illustration">
	<g id="Foreign_language_workshop_1_">
		<circle class="st0" cx="1047" cy="1047" r="915"/>
		<g>
			<rect x="242" y="715.8" class="st1" width="880.2" height="746.7"/>
			<g>
				<g>
					<g>
						<g>
							<path class="st2" d="M483.8,694.6c-8.8,0-17.7-1.1-26.6-3.5c-26.5-7.1-48.7-24.1-62.4-47.9c-13.7-23.8-17.4-51.5-10.3-78
								c7.1-26.5,24.1-48.7,47.9-62.4c23.8-13.7,51.5-17.4,78-10.3c26.5,7.1,48.7,24.1,62.4,47.9c13.7,23.8,17.4,51.5,10.3,78
								l-1-0.3l1,0.3C570.7,664.3,529.1,694.6,483.8,694.6z M483.6,491.1c-17.5,0-34.7,4.6-50.2,13.5c-23.3,13.5-40,35.2-46.9,61.2
								c-14.4,53.7,17.6,109,71.3,123.4c8.7,2.3,17.4,3.4,26,3.4c44.5,0,85.3-29.7,97.3-74.7c7-26,3.4-53.1-10.1-76.4
								c-13.5-23.3-35.2-40-61.2-46.9C501.2,492.2,492.4,491.1,483.6,491.1z"/>
							<circle class="st2" cx="512.6" cy="554.6" r="126.8"/>
						</g>
						<g>
							<path class="st3" d="M615.8,728.7l12.9,2.7c13.1,2.8,26.1-5.6,28.9-18.7l21.3-99.9l-60.5-12.9l-21.3,99.9
								C594.3,713,602.7,725.9,615.8,728.7z"/>
							<g>
								
									<ellipse transform="matrix(0.7071 -0.7071 0.7071 0.7071 -232.4365 616.1998)" class="st2" cx="627.6" cy="588.7" rx="72.5" ry="72.5"/>
								<path class="st3" d="M717.1,646.8c-10.2,16.8-64,6.3-64,6.3L608,613.6c-10.9-25.4,0.8-54.8,26.2-65.7
									c25.4-10.9,54.8,0.8,65.7,26.2C699.9,574.1,727.5,629.7,717.1,646.8z"/>
								<path class="st3" d="M699.8,588.4c0,0,18.7,8,19.6,11.8c1,4.6-12.2,13.4-12.2,13.4S700.2,588.3,699.8,588.4z"/>
								<path class="st2" d="M686.5,658.2c-16.2,0-32.3-3.1-33.2-3.3c-0.5-0.1-0.9-0.6-0.8-1.2c0.1-0.5,0.6-0.9,1.2-0.8
									c0.3,0.1,31.3,6,50.2,1.6c0.5-0.1,1.1,0.2,1.2,0.7c0.1,0.5-0.2,1.1-0.7,1.2C699,657.7,692.7,658.2,686.5,658.2z"/>
								<g>
									<path class="st4" d="M651.6,603.1c0,0,6.5-8.2,16.6-12.5c2.2-0.9,5.5,18.1,3.1,18C660.4,608.1,651.6,603.1,651.6,603.1z"/>
									<g>
										<defs>
											<path id="SVGID_00000128474420884191881280000001864125728585378479_" d="M651.6,603.1c0,0,9.5-12,23.6-14.7
												c14.1-2.7,27.4,5,27.4,5s-9.5,12-23.6,14.7C664.8,610.7,651.6,603.1,651.6,603.1z"/>
										</defs>
										<clipPath id="SVGID_00000067228469543924667270000002469375838810088107_">
											<use xlink:href="#SVGID_00000128474420884191881280000001864125728585378479_"  style="overflow:visible;"/>
										</clipPath>
										<path style="clip-path:url(#SVGID_00000067228469543924667270000002469375838810088107_);fill:#363E44;" d="M668.4,589.9
											c3.8-9.6,14.7-14.3,24.4-10.5c9.6,3.8,14.3,14.7,10.5,24.4c-3.8,9.6-14.7,14.3-24.4,10.5
											C669.3,610.4,664.6,599.5,668.4,589.9z"/>
									</g>
								</g>
								<path class="st2" d="M694.2,629c-0.5,0-1,0-1.5-0.1c-3.2-0.6-5.9-3-6.9-6.1c-0.2-0.5,0.1-1.1,0.7-1.2
									c0.5-0.2,1.1,0.1,1.2,0.7c0.7,2.4,2.8,4.3,5.3,4.7c2.6,0.4,5.2-0.7,6.7-2.9c0.3-0.5,0.9-0.6,1.4-0.3
									c0.5,0.3,0.6,0.9,0.3,1.4C699.8,627.6,697.1,629,694.2,629z"/>
								<path class="st2" d="M602,630.5c0,0,12.1-12.2,33.9-3.2l7.5-9.6c0,0-32.6-60.1,46.5-65c0,0-46.1-42.4-83.7-3.4
									C568.7,588.4,602,630.5,602,630.5z"/>
								<g>
									<path class="st3" d="M606.1,641.7c6.5,7.8,17.4,9.6,24.2,3.9c6.8-5.7,7-16.7,0.5-24.5c-6.5-7.8-17.4-9.6-24.2-3.9
										C599.8,623,599.6,633.9,606.1,641.7z"/>
									<path class="st2" d="M608.7,632.5c-0.5,0-0.9-0.3-1-0.8c-0.6-3.7,0.6-7.2,3.2-9.4c4.3-3.6,11.1-2.6,15.2,2.3
										c0.4,0.4,0.3,1.1-0.1,1.4c-0.4,0.4-1.1,0.3-1.4-0.1c-3.4-4-9-5-12.4-2.1c-2.1,1.7-3,4.5-2.5,7.5c0.1,0.5-0.3,1.1-0.8,1.1
										C608.8,632.5,608.7,632.5,608.7,632.5z"/>
								</g>
								<path class="st6" d="M630,672.2c-6.2,0-12.1-3.6-14.6-9.6c-3.5-8.1,0.3-17.4,8.3-20.9c8.1-3.5,17.4,0.3,20.9,8.3
									c3.5,8.1-0.3,17.4-8.3,20.9C634.2,671.8,632.1,672.2,630,672.2z M617.2,661.8c3,7,11.2,10.3,18.3,7.3
									c3.4-1.5,6.1-4.2,7.4-7.6c1.4-3.5,1.3-7.2-0.1-10.7c-3-7-11.2-10.3-18.3-7.3c-3.4,1.5-6.1,4.2-7.4,7.6
									C615.6,654.6,615.7,658.4,617.2,661.8z"/>
							</g>
						</g>
					</g>
					<path class="st4" d="M551.4,1022.5c0,0-79.9,188.1-54.8,443H947L799.7,988.1L551.4,1022.5z"/>
					<g>
						<g>
							<path class="st3" d="M1054.7,816.5C1054.7,816.4,1054.7,816.5,1054.7,816.5C995,700.1,950.4,618.7,937.6,593
								c-1.3-2.7-3.7-7.4-5-14.2c-4.9-25.1,12.7-37.8,19.6-66.5c7.8-32.5-6.2-55.3,1.5-59.1c5.3-2.7,13,4.4,22.2,23.5c0,0,0,0,0,0
								c-5.3-15.3-11.6-36.3-3.1-39.2c9.9-2.8,20.2,21,25.7,35.7c-6.7-17.8-4.9-29.3,0.2-29.7c8-0.7,16.4,11.9,24.3,35.8
								c-0.9-18,1.6-22.5,6.2-21.8c8.4,1.3,14.6,21,17.3,39.3c3.1,20.6-1.6,37.6-4.9,48.3c0,0,0,0,0,0
								c43.8,82.5,61.9,123.2,99.4,191.6C1191.1,827.8,1119.4,847.4,1054.7,816.5z"/>
							<path class="st2" d="M1030.7,772.7c-0.4,0-0.6-0.3-0.9-0.6l0,0c0,0,0-0.1-0.1-0.1c-0.1-0.1-0.1-0.3-0.2-0.4l-0.9-1.8
								c0-0.1-0.1-0.1-0.1-0.2c-4.6-9-20.1-39-24.4-47.3c0-0.1-0.1-0.1-0.1-0.2l-0.8-1.5c0-0.1-0.1-0.2-0.2-0.3
								c0-0.1-0.1-0.1-0.1-0.1l0,0c-0.2-0.5-0.3-1,0.4-1.4c0.7-0.3,1,0,1.4,0.5l0,0c0,0,0,0.1,0.1,0.2c0.1,0.1,0.2,0.3,0.2,0.5
								l4.4,8.5c2.8,5.4,6.5,12.6,10.1,19.5c3.1,6,6.1,11.9,8.4,16.2l3.4,6.7c0.1,0.1,0.1,0.2,0.2,0.3c0,0.1,0.1,0.1,0.1,0.1l0,0
								c0.2,0.5,0.3,1-0.4,1.4C1031,772.7,1030.8,772.7,1030.7,772.7z"/>
							<path class="st3" d="M952,540.1c-17-28.4-29.1-35.1-33.5-32.3c-7.4,4.8-2.9,35,16.7,79.7C941.1,574.7,946.2,552.9,952,540.1z
								"/>
							<g>
								<path class="st2" d="M996.2,574.1c-0.3,0-0.7-0.2-0.9-0.5c-3.1-5.2-6.7-13.6-6.2-24.2c0.7-15.1,9.2-25.3,12.8-29
									c0.4-0.4,1-0.4,1.4,0c0.4,0.4,0.4,1,0,1.4c-3.5,3.5-11.6,13.2-12.3,27.6c-0.4,10.2,3,18.2,5.9,23.1c0.3,0.5,0.1,1.1-0.3,1.4
									C996.6,574.1,996.4,574.1,996.2,574.1z"/>
								<path class="st2" d="M933.7,563c-0.1,0-0.1,0-0.2,0c-0.5-0.1-0.9-0.7-0.8-1.2c1.6-7.2,4.9-13.8,8.4-20.8
									c1.6-3.3,3.3-6.7,4.9-10.3c0.2-0.5,0.8-0.7,1.3-0.5c0.5,0.2,0.7,0.8,0.5,1.3c-1.6,3.7-3.3,7.1-4.9,10.3
									c-3.4,6.9-6.7,13.4-8.2,20.4C934.6,562.6,934.2,563,933.7,563z"/>
								<path class="st2" d="M976.2,507.8c-0.1,0-0.1,0-0.2,0c-0.5-0.1-0.9-0.6-0.8-1.2c0.8-3.9,1.2-7.9,1.2-11.8
									c0.1-5.7-0.6-11.5-2.1-17.1c-0.1-0.5,0.2-1.1,0.7-1.2c0.5-0.1,1.1,0.2,1.2,0.7c1.5,5.8,2.2,11.7,2.2,17.6
									c0,4.1-0.5,8.2-1.3,12.2C977.1,507.4,976.7,507.8,976.2,507.8z"/>
								<path class="st2" d="M997.8,502c-0.1,0-0.1,0-0.2,0c-0.5-0.1-0.9-0.6-0.8-1.2c0.8-3.9,1.2-7.9,1.2-11.8
									c0.1-5.7-0.6-11.5-2.1-17.1c-0.1-0.5,0.2-1.1,0.7-1.2c0.5-0.1,1.1,0.2,1.2,0.7c1.5,5.8,2.2,11.7,2.2,17.6
									c0,4.1-0.5,8.2-1.3,12.2C998.7,501.7,998.3,502,997.8,502z"/>
								<path class="st2" d="M1023.9,510.1c-0.1,0-0.1,0-0.2,0c-0.5-0.1-0.9-0.6-0.8-1.2c0.8-3.9,1.2-7.9,1.2-11.8
									c0.1-5.7-0.6-11.5-2.1-17.1c-0.1-0.5,0.2-1.1,0.7-1.2c0.5-0.1,1.1,0.2,1.2,0.7c1.5,5.8,2.2,11.7,2.2,17.6
									c0,4.1-0.5,8.2-1.3,12.2C1024.7,509.7,1024.3,510.1,1023.9,510.1z"/>
							</g>
						</g>
						<g>
							<path class="st3" d="M265.6,698.1C265.6,698.1,265.6,698.1,265.6,698.1C332.9,589.6,382.7,514,397.2,490
								c1.5-2.5,4.2-6.9,6-13.4c6.7-24-9.4-37.8-13.8-66.2c-5-32.3,10.4-53.3,3.3-57.6c-5-3-13,3.3-23.4,21.1c0,0,0,0,0,0
								c6.4-14.4,14.1-34.3,6.2-37.8c-9.4-3.5-21.3,18.8-27.8,32.7c7.9-16.8,7.1-28.1,2.2-28.9c-7.8-1.3-16.9,10.3-26.5,32.8
								c2.3-17.4,0.2-22-4.3-21.7c-8.3,0.6-15.8,19.3-19.9,36.9c-4.6,19.8-1.4,36.7,0.9,47.4c0,0,0,0,0,0
								c-49.1,76.8-70,114.9-111.9,178.5C132.1,698.2,200.2,723.1,265.6,698.1z"/>
							<path class="st2" d="M292.5,657.5c-0.2,0-0.3-0.1-0.5-0.2c-0.6-0.4-0.7-0.6-0.3-1.4l0,0c0,0,0.1-0.2,0.3-0.4
								c0.2-0.4,0.5-0.8,0.8-1.3l3-4.8c2.5-4,5.8-9.3,9.3-14.9c4.1-6.5,8.3-13.3,11.5-18.4l5-8.1c0.1-0.1,0.2-0.3,0.3-0.4
								c0.1-0.1,0.1-0.1,0.1-0.2l0,0c0.4-0.5,0.8-0.7,1.4-0.4c0.6,0.4,0.5,1,0.3,1.4l0,0c0,0,0,0.1-0.1,0.1
								c-0.1,0.1-0.1,0.2-0.2,0.3l-0.9,1.4c0,0.1-0.1,0.1-0.1,0.2c-4.9,7.8-22.3,35.7-27.5,44.1c0,0.1-0.1,0.1-0.1,0.2l-1.1,1.7
								c-0.1,0.1-0.2,0.2-0.2,0.4c0,0.1-0.1,0.1-0.1,0.1l0,0C293.1,657.2,292.8,657.5,292.5,657.5z"/>
							<path class="st3" d="M387.4,437.4c18.8-26.3,31.1-31.8,35.2-28.7c6.9,5.2,0,34.3-22.5,76.2
								C395.3,472,392.1,450.3,387.4,437.4z"/>
							<g>
								<path class="st2" d="M341.8,467.1c-0.2,0-0.4-0.1-0.6-0.2c-0.4-0.3-0.6-0.9-0.2-1.4c3.3-4.6,7.2-12.1,7.6-22
									c0.5-14.1-6.6-24.1-9.7-27.8c-0.4-0.4-0.3-1.1,0.1-1.4c0.4-0.4,1.1-0.3,1.4,0.1c3.3,3.9,10.8,14.4,10.2,29.2
									c-0.4,10.4-4.6,18.3-8,23.1C342.4,466.9,342.1,467.1,341.8,467.1z"/>
								<path class="st2" d="M403.4,461.2c-0.5,0-0.9-0.4-1-0.9c-1-6.9-3.6-13.5-6.4-20.5c-1.3-3.3-2.7-6.8-4-10.5
									c-0.2-0.5,0.1-1.1,0.6-1.3c0.5-0.2,1.1,0.1,1.3,0.6c1.3,3.6,2.6,7.1,4,10.4c2.8,7.1,5.5,13.8,6.5,20.9
									c0.1,0.5-0.3,1.1-0.9,1.1C403.5,461.1,403.5,461.2,403.4,461.2z"/>
								<path class="st2" d="M366.5,404.1c-0.5,0-0.9-0.4-1-0.9c-0.5-4-0.5-8-0.3-12c0.4-5.8,1.6-11.5,3.5-17
									c0.2-0.5,0.8-0.8,1.3-0.6c0.5,0.2,0.8,0.8,0.6,1.3c-1.9,5.3-3,10.8-3.4,16.4c-0.3,3.9-0.2,7.8,0.3,11.6
									c0.1,0.5-0.3,1-0.9,1.1C366.6,404.1,366.5,404.1,366.5,404.1z"/>
								<path class="st2" d="M345.9,396.8c-0.5,0-0.9-0.4-1-0.9c-0.5-4-0.5-8-0.3-12c0.4-5.8,1.6-11.5,3.5-17
									c0.2-0.5,0.8-0.8,1.3-0.6c0.5,0.2,0.8,0.8,0.6,1.3c-1.9,5.3-3,10.9-3.4,16.4c-0.3,3.8-0.2,7.8,0.3,11.6
									c0.1,0.5-0.3,1-0.9,1.1C346,396.8,346,396.8,345.9,396.8z"/>
								<path class="st2" d="M320,402.6c-0.5,0-0.9-0.4-1-0.9c-0.5-4-0.5-8-0.3-12c0.4-5.8,1.6-11.5,3.5-17c0.2-0.5,0.8-0.8,1.3-0.6
									c0.5,0.2,0.8,0.8,0.6,1.3c-1.9,5.3-3,10.8-3.4,16.4c-0.3,3.8-0.2,7.8,0.3,11.6c0.1,0.5-0.3,1-0.9,1.1
									C320.1,402.6,320,402.6,320,402.6z"/>
							</g>
						</g>
						<g>
							<path class="st6" d="M327.4,647.7l63.4,34.8c46.3,28,99.5,42.5,153.5,41.9l450.1-5.3l-40.4-82.7l139.9-11.7l61.9,104.5
								c42.1,71-3.6,161.7-85.7,170.2l-194.1,18.2l16.5,114.5c0,0-323.2,61-481-6.8l34.8-108L211.6,782
								c-67.5-40-85.8-129.5-39.3-192.8l75.1-102l121.7,70.5L327.4,647.7z"/>
							<path class="st2" d="M1026.8,786.6c-0.4,0-0.7-0.2-0.9-0.5L998.3,734c-0.3-0.5-0.1-1.1,0.4-1.4c0.5-0.3,1.1-0.1,1.4,0.4
								l27.6,52.1c0.3,0.5,0.1,1.1-0.4,1.4C1027.2,786.6,1027,786.6,1026.8,786.6z"/>
							<path class="st2" d="M874.9,913.1c-0.5,0-0.9-0.3-1-0.8L863,849.4c-0.1-0.5,0.3-1.1,0.8-1.2c0.6-0.1,1.1,0.3,1.2,0.8
								l10.9,62.9c0.1,0.5-0.3,1.1-0.8,1.2C875,913.1,874.9,913.1,874.9,913.1z"/>
							<path class="st2" d="M450.6,908.9c-0.1,0-0.3,0-0.4-0.1c-0.5-0.2-0.8-0.8-0.5-1.3l17.2-42c0.2-0.5,0.8-0.8,1.3-0.5
								c0.5,0.2,0.8,0.8,0.5,1.3l-17.2,42C451.4,908.6,451,908.9,450.6,908.9z"/>
							<path class="st6" d="M536.3,728.3c0,0-10.1-22.7,5-38.3l184.1-4.1c0,0,18.5,15.4,8.9,41.7L536.3,728.3z"/>
							<path class="st2" d="M307.2,687c-0.2,0-0.3,0-0.5-0.1c-0.5-0.3-0.7-0.9-0.4-1.3l15.2-29.7c0.3-0.5,0.9-0.7,1.3-0.4
								c0.5,0.3,0.7,0.9,0.4,1.3l-15.2,29.7C308,686.8,307.6,687,307.2,687z"/>
						</g>
						<g>
							<path class="st4" d="M686.8,918.3c-0.3,0-0.6-0.1-0.8-0.4l-158-189.6c-0.4-0.4-0.3-1.1,0.1-1.4c0.4-0.4,1.1-0.3,1.4,0.1
								l156.8,188.1l53.4-190.1c0.2-0.5,0.7-0.8,1.2-0.7c0.5,0.1,0.8,0.7,0.7,1.2l-53.9,191.9c-0.1,0.4-0.4,0.6-0.8,0.7
								C687,918.3,686.9,918.3,686.8,918.3z"/>
							<path class="st4" d="M690.9,953.3c-7.8,0-14.2-6.4-14.2-14.2c0-7.8,6.4-14.2,14.2-14.2c7.8,0,14.2,6.4,14.2,14.2
								C705.1,946.9,698.7,953.3,690.9,953.3z M690.9,926.8c-6.7,0-12.2,5.5-12.2,12.2c0,6.7,5.5,12.2,12.2,12.2
								c6.7,0,12.2-5.5,12.2-12.2C703.1,932.3,697.6,926.8,690.9,926.8z"/>
							<path class="st4" d="M644.6,777.1c-36.2,0-61.2-12.1-76.1-22.7c-17.5-12.4-25.1-25.1-25.4-25.7c-0.3-0.5-0.1-1.1,0.4-1.4
								c0.5-0.3,1.1-0.1,1.4,0.4c0.1,0.1,7.8,13,24.9,25.1c15.8,11.2,43.1,24.2,83.5,22.1c40.3-2.1,59.1-15.5,67.8-26.4
								c9.3-11.7,9.2-23,9.2-23.1c0-0.6,0.4-1,1-1c0.6,0,1,0.4,1,1c0,0.5,0.1,12.1-9.6,24.4c-8.9,11.2-28.2,25-69.2,27.2
								C650.3,777.1,647.4,777.1,644.6,777.1z"/>
						</g>
					</g>
				</g>
				<g>
					<path class="st4" d="M920.9,378.8c8.4,59.1-32.8,113.8-91.9,122.2c-18.6,2.6-36.8,0.4-53.2-5.8l-30.9,21.5l4.4-36
						c-22.3-16.6-38.3-41.8-42.5-71.6c-8.4-59.1,32.8-113.8,91.9-122.2C857.8,278.5,912.5,319.7,920.9,378.8z"/>
					<g>
						<path class="st7" d="M823.8,427.2h-8.3v-28.9H784v28.9h-8.3v-62.6h8.3v26.9h31.5v-26.9h8.3V427.2z"/>
						<path class="st7" d="M837.3,368.4c0-1.3,0.4-2.4,1.2-3.3c0.8-0.9,2-1.3,3.5-1.3c1.5,0,2.7,0.4,3.5,1.3c0.8,0.9,1.2,2,1.2,3.3
							c0,1.3-0.4,2.4-1.2,3.2c-0.8,0.9-2,1.3-3.5,1.3c-1.5,0-2.7-0.4-3.5-1.3C837.7,370.7,837.3,369.7,837.3,368.4z M845.9,427.2h-8
							v-46.5h8V427.2z"/>
					</g>
				</g>
			</g>
		</g>
		<g>
			
				<ellipse transform="matrix(0.7071 -0.7071 0.7071 0.7071 -770.8934 736.6573)" class="st8" cx="503.8" cy="1298.9" rx="199.5" ry="199.5"/>
			<path class="st4" d="M532.7,1499.4c-0.4,0-0.8,0-1.2,0c-53.6-0.3-103.8-21.5-141.4-59.5c-37.7-38.1-58.2-88.6-57.9-142.1
				c0.3-53.6,21.5-103.8,59.5-141.4c37.8-37.4,87.8-57.9,140.9-57.9c0.4,0,0.8,0,1.2,0c110.6,0.6,200,91.1,199.4,201.7
				C732.6,1410.2,642.7,1499.4,532.7,1499.4z M532.6,1100.4c-52.6,0-102.1,20.3-139.5,57.3c-37.7,37.3-58.6,87-59,140
				c-0.6,109.5,87.9,199,197.4,199.7c53,0.3,103-20.1,140.7-57.3c37.7-37.3,58.6-87,59-140l1,0l-1,0c0.6-109.5-87.9-199-197.4-199.7
				C533.4,1100.4,533,1100.4,532.6,1100.4z"/>
			<path class="st4" d="M533,1203.1c-55.4,0-109.9-9.3-157.6-27l0.7-1.9c47.4,17.6,101.7,26.9,156.9,26.9
				c54.8,0,108.7-9.2,155.8-26.5l0.7,1.9C642.2,1193.9,588,1203.1,533,1203.1z"/>
			<path class="st4" d="M374.3,1420.8l-0.7-1.9c48.1-18.1,103.2-27.7,159.4-27.7c55.9,0,110.7,9.5,158.7,27.4l-0.7,1.9
				c-47.7-17.8-102.3-27.3-158-27.3C477.1,1393.2,422.2,1402.7,374.3,1420.8z"/>
			<path class="st4" d="M532.7,1499.4c-28.1,0-54.4-20.9-74.1-59c-19.6-37.8-30.5-88.1-30.5-141.5s10.8-103.7,30.5-141.5
				c19.7-38,46.1-59,74.1-59c28.1,0,54.4,20.9,74.1,59c19.6,37.8,30.5,88.1,30.5,141.5s-10.8,103.7-30.5,141.5
				C587.1,1478.5,560.7,1499.4,532.7,1499.4z M532.7,1100.4c-56.6,0-102.6,89.1-102.6,198.5c0,109.5,46,198.5,102.6,198.5
				c56.6,0,102.6-89.1,102.6-198.5C635.3,1189.4,589.2,1100.4,532.7,1100.4z"/>
			<rect x="531.7" y="1099.8" class="st4" width="2" height="398.4"/>
			
				<rect x="531.6" y="1098.1" transform="matrix(7.793791e-03 -1 1 7.793791e-03 -769.1392 1820.1768)" class="st4" width="2" height="399.2"/>
		</g>
		<g>
			<g>
				<path class="st9" d="M623.1,1689.5h247.3c-16,0-29-25.4-29-56.8c0-31.4,13-56.8,29-56.8H623.1c-16,0-29,25.4-29,56.8
					C594.1,1664.1,607.1,1689.5,623.1,1689.5z"/>
				<path class="st1" d="M220.2,1691.8h504.5c-32.7,0-59.2-26.4-59.2-59.1c0-32.6,27.3-58.2,60-58.2l-505.3-0.9
					c-32.7,0-59.2,26.5-59.2,59.1C160.9,1665.4,187.5,1691.8,220.2,1691.8z"/>
				<path class="st3" d="M875.6,1690.5H724.6c-33.8,0-60.2-25.4-60.2-57.8s26.5-57.8,60.2-57.8h150.9c0.6,0,1,0.4,1,1
					c0,0.6-0.4,1-1,1H724.6c-32.7,0-58.2,24.5-58.2,55.8s25.6,55.8,58.2,55.8h150.9c0.6,0,1,0.4,1,1
					C876.6,1690.1,876.1,1690.5,875.6,1690.5z"/>
				<path class="st10" d="M851.4,1674.9H719.2c-0.6,0-1-0.4-1-1c0-0.6,0.4-1,1-1h132.2c0.6,0,1,0.4,1,1
					C852.4,1674.5,851.9,1674.9,851.4,1674.9z"/>
				<path class="st10" d="M844.5,1652.1H712.3c-0.6,0-1-0.4-1-1c0-0.6,0.4-1,1-1h132.2c0.6,0,1,0.4,1,1
					C845.5,1651.6,845,1652.1,844.5,1652.1z"/>
				<path class="st10" d="M842.2,1638.3H687.1c-0.6,0-1-0.4-1-1s0.4-1,1-1h155.1c0.6,0,1,0.4,1,1S842.7,1638.3,842.2,1638.3z"/>
				<path class="st10" d="M844.5,1608.6H700.8c-0.6,0-1-0.4-1-1c0-0.6,0.4-1,1-1h143.6c0.6,0,1,0.4,1,1
					C845.5,1608.2,845,1608.6,844.5,1608.6z"/>
				
					<rect x="206.2" y="1600.9" transform="matrix(-1 -1.224647e-16 1.224647e-16 -1 549.0645 3267.6421)" class="st6" width="136.7" height="65.8"/>
				
					<rect x="366.7" y="1600.9" transform="matrix(-1 -1.224647e-16 1.224647e-16 -1 977.5106 3267.6421)" class="st6" width="244.1" height="65.8"/>
			</g>
			<g>
				<path class="st9" d="M623.1,1764.4h247.3c-16,0-29-16.3-29-36.4c0-20.1,13-36.4,29-36.4H623.1c-16,0-29,16.3-29,36.4
					C594.1,1748.2,607.1,1764.4,623.1,1764.4z"/>
				<path class="st10" d="M220.2,1765.9h504.5c-32.7,0-47.8-16.9-47.8-37.8s15.1-37.8,47.8-37.8H220.2c-32.7,0-47.8,16.9-47.8,37.8
					S187.5,1765.9,220.2,1765.9z"/>
				<path class="st3" d="M875.6,1765.4H724.6c-30.5,0-48.8-14-48.8-37.4c0-23.4,18.2-37.4,48.8-37.4h150.9c0.6,0,1,0.4,1,1
					c0,0.6-0.4,1-1,1H724.6c-29.7,0-46.8,12.9-46.8,35.4c0,22.5,17.1,35.4,46.8,35.4h150.9c0.6,0,1,0.4,1,1
					C876.6,1765,876.1,1765.4,875.6,1765.4z"/>
				<path class="st10" d="M851.4,1755.5H719.2c-0.6,0-1-0.4-1-1c0-0.6,0.4-1,1-1h132.2c0.6,0,1,0.4,1,1
					C852.4,1755,851.9,1755.5,851.4,1755.5z"/>
				<path class="st10" d="M844.5,1740.8H712.3c-0.6,0-1-0.4-1-1c0-0.6,0.4-1,1-1h132.2c0.6,0,1,0.4,1,1
					C845.5,1740.4,845,1740.8,844.5,1740.8z"/>
				<path class="st10" d="M842.2,1732H687.1c-0.6,0-1-0.4-1-1c0-0.6,0.4-1,1-1h155.1c0.6,0,1,0.4,1,1
					C843.2,1731.6,842.7,1732,842.2,1732z"/>
				<path class="st10" d="M844.5,1713H700.8c-0.6,0-1-0.4-1-1c0-0.6,0.4-1,1-1h143.6c0.6,0,1,0.4,1,1
					C845.5,1712.6,845,1713,844.5,1713z"/>
			</g>
			<g>
				<path class="st9" d="M442.7,1837.3H211c15,0,27.2,23.8,27.2,53.2c0,29.4-12.2,53.2-27.2,53.2h231.7c15,0,27.2-23.8,27.2-53.2
					C469.9,1861.1,457.7,1837.3,442.7,1837.3z"/>
				<path class="st11" d="M820.1,1835.1H347.6c30.6,0,55.5,24.8,55.5,55.3c0,30.6-24.8,55.3-55.5,55.3h472.5
					c30.6,0,55.5-24.8,55.5-55.3C875.6,1859.9,850.7,1835.1,820.1,1835.1z"/>
				<path class="st3" d="M347.6,1944.7H206.2c-0.6,0-1-0.4-1-1c0-0.6,0.4-1,1-1h141.4c30.6,0,54.5-22.9,54.5-52.2
					s-23.9-52.2-54.5-52.2H206.2c-0.6,0-1-0.4-1-1s0.4-1,1-1h141.4c31.7,0,56.5,23.8,56.5,54.2
					C404.1,1920.9,379.2,1944.7,347.6,1944.7z"/>
				<path class="st10" d="M352.7,1852.9H228.9c-0.6,0-1-0.4-1-1c0-0.6,0.4-1,1-1h123.8c0.6,0,1,0.4,1,1
					C353.7,1852.4,353.2,1852.9,352.7,1852.9z"/>
				<path class="st10" d="M359.1,1874.3H235.3c-0.6,0-1-0.4-1-1c0-0.6,0.4-1,1-1h123.8c0.6,0,1,0.4,1,1
					C360.1,1873.9,359.7,1874.3,359.1,1874.3z"/>
				<path class="st10" d="M382.7,1887.2H237.5c-0.6,0-1-0.4-1-1c0-0.6,0.4-1,1-1h145.3c0.6,0,1,0.4,1,1
					C383.7,1886.7,383.3,1887.2,382.7,1887.2z"/>
				<path class="st10" d="M369.9,1915H235.3c-0.6,0-1-0.4-1-1c0-0.6,0.4-1,1-1h134.5c0.6,0,1,0.4,1,1
					C370.9,1914.5,370.4,1915,369.9,1915z"/>
				<rect x="659.3" y="1858.6" class="st4" width="128" height="61.6"/>
			</g>
			<g>
				<path class="st9" d="M442.7,1767.1H211c15,0,27.2,15.2,27.2,34.1c0,18.8-12.2,34.1-27.2,34.1h231.7c15,0,27.2-15.2,27.2-34.1
					C469.9,1782.3,457.7,1767.1,442.7,1767.1z"/>
				<path class="st8" d="M820.1,1765.7H347.6c30.6,0,44.8,15.9,44.8,35.4c0,19.6-14.1,35.4-44.8,35.4h472.5
					c30.6,0,44.8-15.9,44.8-35.4C864.8,1781.6,850.7,1765.7,820.1,1765.7z"/>
				<path class="st3" d="M347.6,1836.2H206.2c-0.6,0-1-0.4-1-1s0.4-1,1-1h141.4c27.8,0,43.8-12,43.8-33.1c0-21-15.9-33.1-43.8-33.1
					H206.2c-0.6,0-1-0.4-1-1c0-0.6,0.4-1,1-1h141.4c28.6,0,45.8,13.1,45.8,35.1C393.3,1823.1,376.2,1836.2,347.6,1836.2z"/>
				<path class="st10" d="M352.7,1777.4H228.9c-0.6,0-1-0.4-1-1c0-0.6,0.4-1,1-1h123.8c0.6,0,1,0.4,1,1
					C353.7,1777,353.2,1777.4,352.7,1777.4z"/>
				<path class="st10" d="M359.1,1791.2H235.3c-0.6,0-1-0.4-1-1c0-0.6,0.4-1,1-1h123.8c0.6,0,1,0.4,1,1
					C360.1,1790.7,359.7,1791.2,359.1,1791.2z"/>
				<path class="st10" d="M382.7,1799.4H237.5c-0.6,0-1-0.4-1-1c0-0.6,0.4-1,1-1h145.3c0.6,0,1,0.4,1,1
					C383.7,1798.9,383.3,1799.4,382.7,1799.4z"/>
				<path class="st10" d="M369.9,1817.2H235.3c-0.6,0-1-0.4-1-1c0-0.6,0.4-1,1-1h134.5c0.6,0,1,0.4,1,1
					C370.9,1816.8,370.4,1817.2,369.9,1817.2z"/>
			</g>
		</g>
		<g>
			<g>
				<polygon class="st12" points="1292.6,1623 1222.8,1873.6 1608.7,1873.6 1561.8,1619.3 				"/>
				<g>
					<polygon class="st13" points="1468,1837.6 1533.7,1820.6 1561.8,1910.6 1443.2,1936.4 1424.5,1843.6 					"/>
					<path class="st8" d="M1189.9,1935.5h260.3l-17.5-96.7c0,0-110.4-47.6-231.1,23.1C1201.6,1861.9,1171.8,1898.3,1189.9,1935.5z"
						/>
					<path class="st2" d="M1374.9,1911.2c-0.6,0-1-0.4-1-1V1851c0-0.6,0.4-1,1-1c0.6,0,1,0.4,1,1v59.3
						C1375.9,1910.8,1375.4,1911.2,1374.9,1911.2z"/>
					<path class="st2" d="M1358,1911.2c-0.6,0-1-0.4-1-1V1851c0-0.6,0.4-1,1-1c0.6,0,1,0.4,1,1v59.3
						C1359,1910.8,1358.6,1911.2,1358,1911.2z"/>
					<path class="st2" d="M1457.1,1770.7l73.1,164.8c0,0,203.4-42.9,344.8-131.4c49.4-30.9,65.4-95.6,35.9-145.9
						c-0.4-0.7-0.8-1.4-1.3-2.1c-25.2-42.1-76.1-61.1-123-47C1711.5,1631.6,1571.3,1682,1457.1,1770.7z"/>
				</g>
				<g>
					<polygon class="st13" points="1462.9,1868.1 1342.4,1791.3 1299,1910.6 1417.6,1936.4 					"/>
					<path class="st4" d="M1668.1,1935.5h-257.5l17.5-91.3c0,0,95.2-55.4,209-12.8C1637,1831.4,1652.2,1863.8,1668.1,1935.5z"/>
					<path class="st2" d="M1485.9,1911.2c-0.6,0-1-0.4-1-1V1851c0-0.6,0.4-1,1-1c0.6,0,1,0.4,1,1v59.3
						C1486.9,1910.8,1486.5,1911.2,1485.9,1911.2z"/>
					<path class="st2" d="M1502.7,1911.2c-0.6,0-1-0.4-1-1V1851c0-0.6,0.4-1,1-1c0.6,0,1,0.4,1,1v59.3
						C1503.7,1910.8,1503.3,1911.2,1502.7,1911.2z"/>
					<path class="st2" d="M1403.7,1770.7l-73.1,164.8c0,0-203.4-42.9-344.8-131.4c-49.4-30.9-65.4-95.6-35.9-145.9
						c0.4-0.7,0.8-1.4,1.3-2.1c25.2-42.1,76.1-61.1,123-47C1149.3,1631.6,1289.5,1682,1403.7,1770.7z"/>
				</g>
			</g>
			<g>
				<g>
					<g>
						<path class="st13" d="M1737,1658c-22,13-50.2,6.8-64.8-14.1l-63.4-91l73.5-121.4l101.9,135.2
							C1814.4,1619.3,1766.4,1648.4,1737,1658z"/>
						<path class="st13" d="M1715.8,1664.8c0,0-164.4,27.8-167,27.8c-2.7,0-85.8,0-85.8,0l180.9-125.9L1715.8,1664.8z"/>
					</g>
					<g>
						<path class="st13" d="M1126.5,1658c22,13,50.2,6.8,64.8-14.1l63.4-88.4l-73.5-124l-101.9,135.2
							C1049,1619.3,1097,1648.4,1126.5,1658z"/>
						<path class="st13" d="M1147.7,1664.8c0,0,164.4,27.8,167,27.8c2.7,0,85.8,0,85.8,0l-180.9-125.9L1147.7,1664.8z"/>
					</g>
					<path class="st4" d="M1738,1485.4c0,0-78.9-147-313.4-143.5c-262.8,4-305.9,161.1-305.9,161.1l139.4,58.1l4.2,116.4h347.4v-119
						L1738,1485.4z"/>
				</g>
				<g>
					
						<rect x="1257.7" y="1490.1" transform="matrix(-1 -1.224647e-16 1.224647e-16 -1 2862.9937 3188.571)" class="st6" width="347.6" height="208.4"/>
					
						<rect x="1257.7" y="1704.2" transform="matrix(-1 -1.224647e-16 1.224647e-16 -1 2862.9937 3429.6343)" class="st6" width="347.6" height="21.3"/>
					<path class="st14" d="M1450.4,1605.5h-37.8c-0.6,0-1-0.4-1-1v-37.8c0-0.6,0.4-1,1-1h37.8c0.6,0,1,0.4,1,1v37.8
						C1451.4,1605,1450.9,1605.5,1450.4,1605.5z M1413.6,1603.5h35.8v-35.8h-35.8V1603.5z"/>
					<path class="st14" d="M1590.2,1507.8h-317.5c-0.6,0-1-0.4-1-1c0-0.6,0.4-1,1-1h317.5c0.6,0,1,0.4,1,1
						C1591.2,1507.4,1590.8,1507.8,1590.2,1507.8z"/>
				</g>
			</g>
			<g>
				<ellipse class="st13" cx="1420.8" cy="1371.3" rx="84.4" ry="29.7"/>
				<g>
					<polygon class="st13" points="1461.5,1356.6 1381.1,1377.7 1381.1,1209.9 1461.5,1209.9 					"/>
					<path class="st13" d="M1336.3,1308.1c15,20.8,83.9,1.8,83.9,1.8l55-25.1c11.7-34.1-6.7-102.1-40.9-113.8
						c-34.1-11.7-71.3,6.6-82.9,40.7C1351.5,1211.7,1321.1,1286.9,1336.3,1308.1z"/>
					<path class="st13" d="M1353,1230.4c0,0-23.5,12.2-24.3,17.4c-0.9,6.1,17.3,16.2,17.3,16.2S1352.5,1230.2,1353,1230.4z"/>
					<path class="st2" d="M1372.2,1319.8c-0.5,0-1-0.4-1-1c0-0.6,0.4-1,1-1c8.5-0.4,29.2-3.2,36.7-4.5c0.5-0.1,1.1,0.3,1.2,0.8
						c0.1,0.5-0.3,1.1-0.8,1.2C1401.4,1316.6,1380.9,1319.4,1372.2,1319.8C1372.2,1319.8,1372.2,1319.8,1372.2,1319.8z"/>
					<g>
						<path class="st4" d="M1417.3,1244.6c0,0-9.3-10-22.9-14.6c-2.9-1-5.4,24.2-2.2,23.8
							C1406.3,1252.1,1417.3,1244.6,1417.3,1244.6z"/>
						<g>
							<defs>
								<path id="SVGID_00000169550476726085864470000001335949201104065716_" d="M1417.3,1244.6c0,0-13.6-14.7-32.2-16.8
									c-18.6-2.1-35.1,9.2-35.1,9.2s13.6,14.7,32.2,16.8C1400.8,1255.8,1417.3,1244.6,1417.3,1244.6z"/>
							</defs>
							<clipPath id="SVGID_00000047763372126903881730000007089148184309280402_">
								<use xlink:href="#SVGID_00000169550476726085864470000001335949201104065716_"  style="overflow:visible;"/>
							</clipPath>
							
								<ellipse transform="matrix(0.5597 -0.8287 0.8287 0.5597 -423.4069 1682.8431)" style="clip-path:url(#SVGID_00000047763372126903881730000007089148184309280402_);fill:#363E44;" cx="1372" cy="1239.9" rx="24.5" ry="24.5"/>
						</g>
					</g>
					<path class="st2" d="M1363.5,1282.3c-3.3,0-6.6-1.5-8.7-4.2c-0.3-0.4-0.3-1.1,0.2-1.4c0.4-0.3,1.1-0.3,1.4,0.2
						c2.2,2.8,5.9,4,9.3,3.2c3.3-0.8,5.9-3.5,6.6-6.9c0.1-0.5,0.6-0.9,1.2-0.8c0.5,0.1,0.9,0.6,0.8,1.2c-0.9,4.1-4.1,7.4-8.1,8.4
						C1365.3,1282.2,1364.4,1282.3,1363.5,1282.3z"/>
					<path class="st2" d="M1447.7,1278.2c-0.3,0-0.5-0.1-0.7-0.3c-0.4-0.4-0.3-1,0.1-1.4c4.8-4.2,7.7-9.2,7.8-13.4
						c0-1.6-0.4-2.9-1.2-3.7c-2-2-7.5-1.8-13.3,0.5c-0.5,0.2-1.1,0-1.3-0.6c-0.2-0.5,0-1.1,0.6-1.3c5.1-2,12.2-3.3,15.5-0.1
						c1.2,1.2,1.8,3,1.8,5.2c-0.1,4.7-3.3,10.3-8.4,14.9C1448.2,1278.1,1447.9,1278.2,1447.7,1278.2z"/>
				</g>
				<g>
					<path class="st16" d="M1468.3,1300.6c14.3-1.1,28-37.3,29.2-43.5c4-21.4,7-42.4-9.6-68.3c-22.4-34.9-67.7-32.9-77.6-31.7
						c-26.9,3.4-49.7,21.7-46.6,30.4c2.7,7.5,31.1,7.9,39.5,8.7c20.4,1.8,30.1-0.7,33.9,5.4c3.5,5.6-5.8,12.5-10.1,29.7
						c-3.2,12.7-1.2,23.3-0.2,29.9c4.2-11.3,14-18.3,23.5-18.4c9.9-0.1,15.2,7.5,17.5,14.3c5.2,15.2-4.8,31.1-17,38.1
						C1454,1298.5,1463.5,1301,1468.3,1300.6z"/>
					<g>
						<path class="st16" d="M1487.3,1187.6c0,16.3,13.2,29.5,29.5,29.5c16.3,0,29.5-13.2,29.5-29.5s-13.2-29.5-29.5-29.5
							C1500.5,1158.1,1487.3,1171.3,1487.3,1187.6z"/>
						<path class="st16" d="M1519.5,1230.2c-16.8,0-30.5-13.7-30.5-30.5s13.7-30.5,30.5-30.5s30.5,13.7,30.5,30.5
							S1536.4,1230.2,1519.5,1230.2z M1519.5,1171.2c-15.7,0-28.5,12.8-28.5,28.5s12.8,28.5,28.5,28.5c15.7,0,28.5-12.8,28.5-28.5
							S1535.3,1171.2,1519.5,1171.2z"/>
					</g>
					<path class="st16" d="M1398.4,1248.4c-0.2,0-0.4-0.1-0.6-0.2c-14.1-9.4-20.4-17.1-19.1-23.8c0.8-4,4.2-6.4,7.1-8.6
						c2.8-2,5.4-3.9,5.7-6.7c0.4-4.5-7.7-11.3-21.7-18.2c-0.5-0.2-0.7-0.8-0.5-1.3c0.2-0.5,0.8-0.7,1.3-0.5
						c15.2,7.5,23.3,14.7,22.8,20.2c-0.4,3.7-3.5,5.9-6.5,8.1c-2.8,2-5.7,4.1-6.3,7.3c-1.1,5.7,5,13,18.2,21.7
						c0.5,0.3,0.6,0.9,0.3,1.4C1399.1,1248.2,1398.7,1248.4,1398.4,1248.4z"/>
				</g>
			</g>
		</g>
		<g>
			<path class="st2" d="M1712.9,1113.2H1307l-41.1-51.7c-37.9-49.3-2.8-120.6,59.4-120.6h475.8l10,23.6
				C1841.2,1035,1789.5,1113.2,1712.9,1113.2z"/>
			<g>
				<path class="st6" d="M1278.1,1013.1h230.2c15.6,0,28.3-12.7,28.3-28.3h-258.4V1013.1z"/>
				<path class="st6" d="M1276.4,1012.3L1206.7,793c-4.7-14.9,3.5-30.8,18.4-35.5l78.3,246.3L1276.4,1012.3z"/>
				<path class="st2" d="M1302.5,974c-0.4,0-0.8-0.3-1-0.7l-68.5-215.6c-0.2-0.5,0.1-1.1,0.7-1.3c0.5-0.2,1.1,0.1,1.3,0.7
					l68.5,215.6c0.2,0.5-0.1,1.1-0.7,1.3C1302.7,974,1302.6,974,1302.5,974z"/>
			</g>
			<g>
				<g>
					<path class="st13" d="M1371.8,760.2c0,0,53.1,29.6,160.6,42.2c119.1,13.9,3-109.9,3-109.9s-86.1-33.6-129.6-50.8
						C1368.5,627.1,1371.8,760.2,1371.8,760.2z"/>
					<g>
						<path class="st3" d="M1451.7,707.9c0,0-37.4-110.5-55.4-154.1c-18.9-45.8-53.5-110.6-62.5-105.6c-5.1,2.8-2.2,12.6,7.2,38.4
							c-1.8-0.8-7.8-2-12.1,1.4c-6.4,5-3.8,11.3-3.8,12c-0.6-0.3-7.4-3.7-12.2-1.1c-5.5,3-6.8,8.1-6.4,12.9c-1.5-0.8-8.2-3-12.8-0.2
							c-5.9,3.6-5.8,11.2-3.5,16.5c4.1,9.6,16.1,35.6,20.7,50.2c9,28.6,21.1,139.3,51.2,172.6
							C1415.8,810.2,1461.2,736.8,1451.7,707.9z"/>
						<path class="st2" d="M1346,574.1c-0.5,0-1-0.4-1-0.9c-0.6-11.1,3-19.3,5.9-25.9c3-6.9,4.5-10.7,1.2-13.9
							c-3.2-3.2-5.4-8.3-6.5-15.2c-0.4-2.3,0.7-4.5,2.7-5.6c2-1.1,4.5-0.9,6.3,0.6l24.5,20.8c0.4,0.4,0.5,1,0.1,1.4
							c-0.4,0.4-1,0.5-1.4,0.1l-24.5-20.8c-1.4-1.2-3-1-4-0.4c-1,0.6-2,1.8-1.7,3.6c1,6.4,3,11.3,5.9,14.1c4.4,4.4,2.1,9.5-0.8,16.1
							c-2.8,6.4-6.3,14.3-5.7,24.9C1347,573.6,1346.6,574,1346,574.1C1346,574.1,1346,574.1,1346,574.1z"/>
						<path class="st2" d="M1303,543.1c-0.4,0-0.8-0.2-0.9-0.6c-0.2-0.5,0-1.1,0.5-1.3c7.3-3.1,10.9-11.4,8.3-18.8l-2.1-6.1
							c-0.2-0.5,0.1-1,0.5-1.2c0.5-0.2,1-0.1,1.3,0.4l6.6,10.8c2.3,3.8,7.1,5.5,11.3,3.9c2.4-0.9,4.2-2.7,5.2-5c1-2.3,1-4.9,0.1-7.2
							l-6.4-15.6c-0.2-0.5,0-1.1,0.5-1.3c0.5-0.2,1.1,0,1.3,0.4l3.9,7.1c1.9,3.4,6.2,4.8,9.7,3c3.3-1.7,4.7-5.6,3.4-9l-4.2-11
							c-0.2-0.5,0.1-1.1,0.6-1.3c0.5-0.2,1.1,0.1,1.3,0.6l4.2,11c1.7,4.4-0.2,9.3-4.4,11.5c-3.3,1.7-7.2,1.2-10-1l1.9,4.7
							c1.2,2.8,1.1,6-0.1,8.8c-1.2,2.8-3.5,5-6.3,6.1c-5.1,1.9-10.8,0-13.7-4.7l-2-3.4c1.6,7.8-2.5,15.9-10,19.1
							C1303.3,543.1,1303.1,543.1,1303,543.1z"/>
					</g>
				</g>
				<g>
					<path class="st8" d="M1424.6,649.1c0,0,138,16.3,237.6,8.4c46.9-3.7,134.9-4.1,164.6,15.4c66.4,43.5,84.2,114.5,84.2,114.5
						l-115.3,21.1l42.4,142.9c14.7,49.6,5.7,92.2-24.5,134.2l-71.9,0l13-69.1l-38.2,69.1l-196.7-144.7l-2.3-125.6l-129.3-41.9
						L1424.6,649.1z"/>
					<path class="st2" d="M1520.4,807.8c-0.6,0-1-0.4-1-1v-33.4c0-0.6,0.4-1,1-1c0.6,0,1,0.4,1,1v33.4
						C1521.4,807.3,1521,807.8,1520.4,807.8z"/>
				</g>
				<path class="st8" d="M1444.4,663.9c-1.2-4.8-34.1-90.8-34.1-90.8l-98.7,37.6c0,0,4.9,146.5,76.8,162.7
					C1460.2,789.5,1444.4,663.9,1444.4,663.9z"/>
				<g>
					<g>
						<path class="st3" d="M1611.1,837.6c10,3.5,53.7,11.4,59.8,31.2c6.1,19.9-2.7,41.2-16.4,56.8c-0.1,0-0.2,0-0.3,0
							c-5.3,2.3-13.5,5-23,3.5c-10.8-1.7-12.8-7.2-23.8-10.8c-18.7-6.1-31.6,4.2-34.5-2.2c-2-4.3,5.2-10.6,13.4-14.6
							c8.3-4.1,15.5-3.3,15.5-4.8c0.1-1.7-7.3-1.6-16.5-2.4c-4.3-0.3-16.5,5.9-20.1,0.4c-2.9-4.4,8.2-14.1,20.9-16.1
							c9-1.5,16.6,3.1,17.1,1.6c0.4-1.2-4.2-3.8-8.8-4.9c-7.6-1.8-20.2,4.4-23.4-0.7c-3.2-5,6.7-13.3,18.2-16
							c9.7-2.2,17.9,3.3,18.7,1.4c0.5-1.4-2.7-4.6-11-9.1c-6.9-3.8-22.9-6.6-20-14.5C1579.3,829.7,1596.1,832.3,1611.1,837.6z"/>
						<path class="st3" d="M1825.4,891.3c21.9,8,36.5,29.3,35,52.4c-1,15.2-8.9,30.7-33,39.4c-58.6,21.3-185.5-65.2-185.5-65.2
							l-12.9-75.3C1703.5,858.2,1765.1,869.4,1825.4,891.3z"/>
					</g>
					<g>
						<path class="st8" d="M1749.9,868.8l-15.5,110.9l98.1,19.5c63,12.5,118.6-42.8,106.4-105.8c-10.7-55.2-26.6-115.5-49.4-154.1
							l-121,26l31.7,107.7L1749.9,868.8z"/>
						<path class="st2" d="M1800.2,873.9c-0.4,0-0.8-0.3-1-0.7l-14.3-48.7c-0.2-0.5,0.1-1.1,0.7-1.2c0.5-0.2,1.1,0.1,1.2,0.7
							l14.3,48.7c0.2,0.5-0.1,1.1-0.7,1.2C1800.4,873.9,1800.3,873.9,1800.2,873.9z"/>
						<path class="st2" d="M1850.4,1001.9c-6,0-12.1-0.6-18.1-1.8l-99-19.6l3.8-27.5c0.1-0.5,0.6-0.9,1.1-0.9
							c0.5,0.1,0.9,0.6,0.9,1.1l-3.6,25.6l97.1,19.3c10.5,2.1,21.1,2.3,31.4,0.7c0.5-0.1,1.1,0.3,1.1,0.8c0.1,0.5-0.3,1.1-0.8,1.1
							C1859.8,1001.5,1855.1,1001.9,1850.4,1001.9z"/>
						<path class="st2" d="M1815.2,875.1C1815.1,875.1,1815.1,875.1,1815.2,875.1l-65.3-5.4c-0.6,0-1-0.5-0.9-1.1
							c0-0.6,0.5-0.9,1.1-0.9l65.2,5.4c0.6,0,1,0.5,0.9,1.1C1816.1,874.7,1815.7,875.1,1815.2,875.1z"/>
					</g>
				</g>
				<path class="st2" d="M1643.4,807.8c-0.6,0-1-0.4-1-1v-98.7l1,0c53.9,1.2,63.1-34.1,63.2-34.4c0.1-0.5,0.7-0.9,1.2-0.7
					c0.5,0.1,0.9,0.7,0.7,1.2c-0.1,0.4-2.4,9.5-11.6,18.5c-8.2,8-23.6,17.4-50.9,17.4c-0.5,0-1.1,0-1.6,0v96.7
					C1644.4,807.3,1644,807.8,1643.4,807.8z"/>
			</g>
			<g>
				<path class="st3" d="M1655.5,687.6l5.1-1.4c15-4.1,23.7-19.6,19.6-34.5l-26.2-95.2c-4.1-15-19.6-23.7-34.5-19.6l-5.1,1.4
					c-15,4.1-23.7,19.6-19.6,34.5L1621,668C1625.1,683,1640.6,691.8,1655.5,687.6z"/>
				<g>
					<g>
						<path class="st3" d="M1562.2,614.6c8.6,17.5,62.8,6.3,62.8,6.3l48.1-29.1c13.1-24.1,4.2-54.2-19.8-67.4
							c-24.1-13.1-54.2-4.2-67.4,19.8C1585.9,544.3,1553.5,596.8,1562.2,614.6z"/>
						<path class="st3" d="M1584.7,558.5c0,0-19.2,6.1-20.4,9.9c-1.4,4.5,10.9,14.3,10.9,14.3S1584.4,558.3,1584.7,558.5z"/>
						<g>
							<path class="st4" d="M1626.9,568.2c0,0-5.8-5.9-14.1-8.5c-1.8-0.6-2.9,14.7-1,14.4C1620.4,572.9,1626.9,568.2,1626.9,568.2z"
								/>
							<g>
								<defs>
									<path id="SVGID_1_" d="M1626.9,568.2c0,0-8.5-8.7-19.8-9.7c-11.3-1-21.2,6.1-21.2,6.1s8.5,8.7,19.8,9.7
										C1617.1,575.2,1626.9,568.2,1626.9,568.2z"/>
								</defs>
								<clipPath id="SVGID_00000030456538765298545900000013534785678694955925_">
									<use xlink:href="#SVGID_1_"  style="overflow:visible;"/>
								</clipPath>
								<path style="clip-path:url(#SVGID_00000030456538765298545900000013534785678694955925_);fill:#363E44;" d="M1612.6,559.1
									c-3.8-7.3-12.7-10.1-20-6.3c-7.3,3.8-10.1,12.7-6.3,20c3.8,7.3,12.7,10.1,20,6.3C1613.6,575.4,1616.4,566.4,1612.6,559.1z"
									/>
							</g>
						</g>
						<g>
							<path class="st2" d="M1705.2,547.3c0,0-4.3,57.4-44.8,58.9l-5.1-11.2l-23.9-0.9l19.2-20.2c6.4-8.3,3.6-20.3-5.8-24.9
								l-40.8-20.2l12.1-21.2C1651.6,505.1,1682.1,516.1,1705.2,547.3z"/>
							<path class="st2" d="M1663.4,518c4,3.4,10,2.9,13.3-1.1c3.4-4,4.7-12,0.7-15.4c-4-3.4-11.7-0.8-15.1,3.1
								C1658.9,508.6,1659.4,514.6,1663.4,518z"/>
							<path class="st2" d="M1655.8,517.1c5.1,1,10.1-2.3,11.2-7.4c1-5.1-1.7-12.8-6.9-13.8c-5.1-1-10.7,5-11.7,10.1
								C1647.4,511.1,1650.7,516.1,1655.8,517.1z"/>
							<path class="st2" d="M1639.6,515.4c7.1,0.2,13-5.4,13.1-12.5c0.2-7.1-5.3-16.7-12.4-16.8c-7.1-0.2-13.1,9.1-13.2,16.2
								S1632.6,515.2,1639.6,515.4z"/>
							<path class="st2" d="M1676.2,525.8c3.9,3.5,9.9,3.2,13.4-0.6c3.5-3.9,5.1-11.9,1.2-15.4c-3.9-3.5-11.7-1.2-15.2,2.6
								C1672.1,516.3,1672.3,522.2,1676.2,525.8z"/>
							<path class="st2" d="M1628.1,512.1c4.9-3.9,5.7-11.1,1.8-16c-3.9-4.9-13.2-8.3-18.1-4.4c-4.9,3.9-3.7,13.7,0.2,18.6
								C1615.9,515.2,1623.1,516,1628.1,512.1z"/>
							<path class="st2" d="M1685.2,534.3c3.9,5.2,11.3,6.2,16.5,2.3c5.2-3.9,8.9-13.4,5-18.6s-14-4.2-19.2-0.2
								C1682.3,521.7,1681.3,529.1,1685.2,534.3z"/>
							<path class="st2" d="M1694.9,541.2c0.9,5,5.8,8.3,10.8,7.3s10.9-6.3,9.9-11.3c-0.9-5-8.4-7.8-13.4-6.8
								C1697.2,531.4,1693.9,536.2,1694.9,541.2z"/>
							<path class="st2" d="M1619,523.4c4.2-6.4,2.4-15.1-4-19.3c-6.4-4.2-18.4-4.6-22.6,1.8c-4.2,6.4,1,17.3,7.4,21.5
								C1606.2,531.7,1614.8,529.8,1619,523.4z"/>
						</g>
						<path class="st3" d="M1681.5,596.6c-0.9,9.4-9.3,16.3-18.7,15.4c-9.4-0.9-16.3-9.3-15.4-18.7c0.9-9.4,9.3-16.3,18.7-15.4
							C1675.5,578.8,1682.4,587.2,1681.5,596.6z"/>
						<path class="st2" d="M1568.9,577l-15.1,38.8c-2.1,5.4,0.7,11.5,6.2,13.3c1.4,0.5,2.9,1,4.5,1.5c27.7,8.7,58,2.5,80.1-16.5
							c7.4-6.4,10.1-16.6,6.8-25.8l-1.1-3l-9.3,0.1c0,0-15.9,17.1-24.2,14.6C1608.5,597.7,1597.8,584.3,1568.9,577z"/>
						<path class="st3" d="M1585.1,598c-2.9,0-5.6-1.6-7-4.2c-0.3-0.5-0.1-1.1,0.4-1.4c0.5-0.3,1.1-0.1,1.4,0.4
							c1.1,2.1,3.4,3.3,5.7,3.1c2.2-0.2,4.2-1.6,5.1-3.7c0.2-0.5,0.8-0.8,1.3-0.6c0.5,0.2,0.8,0.8,0.6,1.3c-1.1,2.8-3.8,4.8-6.8,5
							C1585.5,598,1585.3,598,1585.1,598z"/>
						<path class="st3" d="M1655.1,557c-0.5,0-0.9-0.3-1-0.8c-0.1-0.5,0.2-1.1,0.8-1.2l24.7-4.8c0.5-0.1,1.1,0.2,1.2,0.8
							c0.1,0.5-0.2,1.1-0.8,1.2l-24.7,4.8C1655.2,557,1655.1,557,1655.1,557z"/>
					</g>
				</g>
			</g>
		</g>
		<g>
			<path class="st4" d="M1208.5,183.6c71.8,0,130,58.2,130,130c0,22.6-5.8,43.9-15.9,62.4l20.4,40.4l-42.1-11.3
				c-23.6,23.8-56.2,38.6-92.4,38.6c-71.8,0-130-58.2-130-130C1078.5,241.8,1136.7,183.6,1208.5,183.6z"/>
			<g>
				<path class="st16" d="M1167.8,339.9h-8.3V311H1128v28.9h-8.3v-62.6h8.3v26.9h31.5v-26.9h8.3V339.9z"/>
				<path class="st16" d="M1179.1,316.2c0-4.6,0.9-8.7,2.7-12.3c1.8-3.6,4.3-6.4,7.5-8.4c3.2-2,6.8-3,10.9-3
					c6.3,0,11.5,2.2,15.4,6.6c3.9,4.4,5.9,10.2,5.9,17.5v0.6c0,4.5-0.9,8.6-2.6,12.2c-1.7,3.6-4.2,6.4-7.4,8.4c-3.2,2-6.9,3-11.1,3
					c-6.3,0-11.4-2.2-15.3-6.6c-3.9-4.4-5.9-10.2-5.9-17.4V316.2z M1187.1,317.2c0,5.2,1.2,9.3,3.6,12.4c2.4,3.1,5.6,4.7,9.6,4.7
					c4,0,7.2-1.6,9.6-4.7c2.4-3.2,3.6-7.6,3.6-13.3c0-5.1-1.2-9.2-3.6-12.4c-2.4-3.2-5.6-4.7-9.6-4.7c-3.9,0-7.1,1.6-9.5,4.7
					C1188.3,306.9,1187.1,311.4,1187.1,317.2z"/>
				<path class="st16" d="M1240.1,339.9h-8v-66h8V339.9z"/>
				<path class="st16" d="M1281.5,339.9c-0.5-0.9-0.8-2.5-1.1-4.9c-3.7,3.8-8.1,5.8-13.2,5.8c-4.6,0-8.3-1.3-11.3-3.9
					c-2.9-2.6-4.4-5.9-4.4-9.9c0-4.8,1.8-8.6,5.5-11.3c3.7-2.7,8.9-4,15.5-4h7.7v-3.7c0-2.8-0.8-5-2.5-6.6c-1.7-1.6-4.1-2.5-7.3-2.5
					c-2.8,0-5.2,0.7-7.1,2.1c-1.9,1.4-2.9,3.2-2.9,5.2h-8c0-2.3,0.8-4.6,2.5-6.7c1.6-2.2,3.9-3.9,6.7-5.1c2.8-1.3,5.9-1.9,9.3-1.9
					c5.4,0,9.6,1.3,12.6,4c3,2.7,4.6,6.4,4.7,11.1v21.4c0,4.3,0.5,7.7,1.6,10.2v0.7H1281.5z M1268.3,333.9c2.5,0,4.9-0.6,7.1-1.9
					c2.2-1.3,3.9-3,4.9-5v-9.5h-6.2c-9.7,0-14.6,2.9-14.6,8.6c0,2.5,0.8,4.4,2.5,5.8C1263.6,333.2,1265.7,333.9,1268.3,333.9z"/>
			</g>
		</g>
		<g>
			<path class="st4" d="M1874.9,1177.1c-52.8-48.7-135-45.4-183.7,7.3c-15.3,16.6-25.5,36.2-30.6,56.7l-42.4,15.8l38.6,20.2
				c1.2,33.5,15.2,66.5,41.7,91c52.7,48.7,135,45.4,183.7-7.3C1930.9,1308.1,1927.7,1225.8,1874.9,1177.1z"/>
			<g>
				<path class="st16" d="M1751.8,1298.9h-8.3V1270H1712v28.9h-8.3v-62.6h8.3v26.9h31.5v-26.9h8.3V1298.9z"/>
				<path class="st16" d="M1763.1,1275.3c0-4.6,0.9-8.7,2.7-12.3c1.8-3.6,4.3-6.4,7.5-8.4c3.2-2,6.8-3,10.9-3
					c6.3,0,11.5,2.2,15.4,6.6c3.9,4.4,5.9,10.2,5.9,17.5v0.6c0,4.5-0.9,8.6-2.6,12.2c-1.7,3.6-4.2,6.4-7.4,8.4c-3.2,2-6.9,3-11.1,3
					c-6.3,0-11.4-2.2-15.3-6.6c-3.9-4.4-5.9-10.2-5.9-17.4V1275.3z M1771.1,1276.2c0,5.2,1.2,9.3,3.6,12.4c2.4,3.1,5.6,4.7,9.6,4.7
					c4,0,7.2-1.6,9.6-4.7c2.4-3.2,3.6-7.6,3.6-13.3c0-5.1-1.2-9.2-3.6-12.4c-2.4-3.2-5.6-4.7-9.6-4.7c-3.9,0-7.1,1.6-9.5,4.7
					C1772.3,1265.9,1771.1,1270.4,1771.1,1276.2z"/>
				<path class="st16" d="M1824.1,1298.9h-8v-66h8V1298.9z"/>
				<path class="st16" d="M1865.5,1298.9c-0.5-0.9-0.8-2.5-1.1-4.9c-3.7,3.8-8.1,5.8-13.2,5.8c-4.6,0-8.3-1.3-11.3-3.9
					c-2.9-2.6-4.4-5.9-4.4-9.9c0-4.8,1.8-8.6,5.5-11.3c3.7-2.7,8.9-4,15.5-4h7.7v-3.7c0-2.8-0.8-5-2.5-6.6c-1.7-1.6-4.1-2.5-7.3-2.5
					c-2.8,0-5.2,0.7-7.1,2.1c-1.9,1.4-2.9,3.2-2.9,5.2h-8c0-2.3,0.8-4.6,2.5-6.7c1.6-2.2,3.9-3.9,6.7-5.1c2.8-1.3,5.9-1.9,9.3-1.9
					c5.4,0,9.6,1.3,12.6,4c3,2.7,4.6,6.4,4.7,11.1v21.4c0,4.3,0.5,7.7,1.6,10.2v0.7H1865.5z M1852.3,1292.9c2.5,0,4.9-0.6,7.1-1.9
					c2.2-1.3,3.9-3,4.9-5v-9.5h-6.2c-9.7,0-14.6,2.9-14.6,8.6c0,2.5,0.8,4.4,2.5,5.8C1847.6,1292.2,1849.7,1292.9,1852.3,1292.9z"/>
			</g>
		</g>
	</g>
</g>
</svg>
